<mxfile host="app.diagrams.net" modified="2024-02-07T23:18:40.981Z" agent="Mozilla/5.0 (Macintosh; Intel Mac OS X 10_15_7) AppleWebKit/537.36 (KHTML, like Gecko) Chrome/121.0.0.0 Safari/537.36" etag="KCc-e1FF80Es0nlWcNkJ" version="23.1.2" type="device">
  <diagram name="Page-1" id="FOfBa8BynIHrctNdHhrm">
    <mxGraphModel dx="978" dy="566" grid="1" gridSize="10" guides="1" tooltips="1" connect="1" arrows="1" fold="1" page="1" pageScale="1" pageWidth="850" pageHeight="1100" math="0" shadow="0">
      <root>
        <mxCell id="0" />
        <mxCell id="1" parent="0" />
        <mxCell id="FFqNFtl4GD_VljmoFZx4-1" value="&lt;font style=&quot;font-size: 19px;&quot;&gt;First Year&lt;/font&gt;" style="rounded=1;whiteSpace=wrap;html=1;fillColor=#CCFFCC;strokeColor=#36393d;" vertex="1" parent="1">
          <mxGeometry x="110" y="200" width="100" height="60" as="geometry" />
        </mxCell>
        <mxCell id="FFqNFtl4GD_VljmoFZx4-2" value="&lt;font style=&quot;font-size: 17px;&quot;&gt;First Summer&lt;/font&gt;" style="rounded=1;whiteSpace=wrap;html=1;fillColor=#99FF99;strokeColor=#36393d;" vertex="1" parent="1">
          <mxGeometry x="220" y="200" width="70" height="60" as="geometry" />
        </mxCell>
        <mxCell id="FFqNFtl4GD_VljmoFZx4-3" value="&lt;span style=&quot;font-size: 19px;&quot;&gt;Second Year&lt;/span&gt;" style="rounded=1;whiteSpace=wrap;html=1;fillColor=#99FFCC;strokeColor=#36393d;" vertex="1" parent="1">
          <mxGeometry x="300" y="200" width="100" height="60" as="geometry" />
        </mxCell>
        <mxCell id="FFqNFtl4GD_VljmoFZx4-4" value="&lt;span style=&quot;font-size: 19px;&quot;&gt;Second Summer&lt;/span&gt;" style="rounded=1;whiteSpace=wrap;html=1;fillColor=#66FFB3;strokeColor=#36393d;" vertex="1" parent="1">
          <mxGeometry x="410" y="200" width="80" height="60" as="geometry" />
        </mxCell>
        <mxCell id="FFqNFtl4GD_VljmoFZx4-5" value="&lt;span style=&quot;font-size: 19px;&quot;&gt;Third Year&lt;/span&gt;" style="rounded=1;whiteSpace=wrap;html=1;fillColor=#FF9999;strokeColor=#36393d;" vertex="1" parent="1">
          <mxGeometry x="500" y="200" width="100" height="60" as="geometry" />
        </mxCell>
        <mxCell id="FFqNFtl4GD_VljmoFZx4-6" value="&lt;span style=&quot;font-size: 19px;&quot;&gt;Third Summer&lt;/span&gt;" style="rounded=1;whiteSpace=wrap;html=1;fillColor=#FF99CC;strokeColor=#36393d;" vertex="1" parent="1">
          <mxGeometry x="610" y="200" width="80" height="60" as="geometry" />
        </mxCell>
        <mxCell id="FFqNFtl4GD_VljmoFZx4-7" value="&lt;span style=&quot;font-size: 19px;&quot;&gt;12/15&lt;/span&gt;" style="rounded=1;whiteSpace=wrap;html=1;fillColor=#FF3333;strokeColor=#36393d;" vertex="1" parent="1">
          <mxGeometry x="790" y="200" width="80" height="60" as="geometry" />
        </mxCell>
        <mxCell id="FFqNFtl4GD_VljmoFZx4-8" value="&lt;span style=&quot;font-size: 19px;&quot;&gt;Sept.&lt;br&gt;to Dec.&lt;br&gt;&lt;/span&gt;" style="rounded=1;whiteSpace=wrap;html=1;fillColor=#FF9933;strokeColor=#36393d;" vertex="1" parent="1">
          <mxGeometry x="700" y="200" width="80" height="60" as="geometry" />
        </mxCell>
      </root>
    </mxGraphModel>
  </diagram>
</mxfile>
